<svg viewBox="0 0 200 200" xmlns="http://www.w3.org/2000/svg">
  <g transform="translate(-28.06 27.754)">
    <path
      d="M53.177 106.626s-3.323-6.743.157-11.146c3.48-4.403 9.772-21.189 13.842-43.435-.001-.003 1.822 1.43 1.432-7.753-.39-9.183 3.74-34.093 10.896-41.402 7.972-5.098 35.567 1.295 48.05 15.507 3.19-1.886 16.67 1.393 14.773 2.515-.866-.101 29.848-10.429 33.77-9.263 15.854-.424 22.863 9.777 21.986 19.83 4.077 58.854-10.717 25.74-8.502 85.165-3.612 4.347-5.084 11.36-6.216 12.343-10.798 11.808-96.79 24.272-130.188-22.361z"
      fill="#ec0000"
    />
    <path
      d="M62.978 115.632c15.141 17.71 45.359 23.482 69.634 23.804.144.524 3.063-7.171 3.389-22.43 2.968-.934 9.769.227 13.237-6.366 5.357-22.672-2.512-66.616-26.225-49.705l-24.995-3.638c-2.441-12.159-22.869-13.229-35.981 41.276l3.543 6.558-2.602 10.501z"
      fill="#ffddba"
    />
    <g fill="none" stroke-width="3" stroke-linecap="round" stroke="#630709">
      <path
        d="M53.425 106.415c25.079 38.693 104.503 40.393 129.713 22.208M67.404 52.739c-9.277 35.567-7.846 34.554-14.342 43.033M79.566 2.391c.651-2.583-12.315 20.331-10.62 42.336M127.972 18.608C113.961 6.102 97.878-1.395 80.08 2.165M127.996 18.578c4.793-.233 5.645-.834 12.872 1.702"
      />
      <path
        d="M136.094 23.843c28.017-15.115 60.963-19.491 61.219 6.279"
        stroke-linejoin="round"
      />
      <path d="M197.31 30.111c4.778 56.072-9.776 28.736-8.169 86.559" />
    </g>
    <g>
      <path
        d="M85.213 10.897c-.197.004-5.45 15.231-5.676 23.145 4.48-4.784 10.363-11.066 24.528-14.419-2.268-4.65-17.13-10.497-18.852-8.726z"
        fill="#fcdfba"
      />
      <path
        d="M149.003 31.754c-2.703-1.527 23.998-13.319 30.734-9.069 4.397 12.608-3.197 48.116-5.193 42.933-2.258-5.862-11.332-25.838-25.541-33.864z"
        fill="#ffddba"
      />
    </g>
    <g fill="none" stroke-linecap="round" stroke-width="3">
      <path
        d="M81.812 62.823c6.087-3.719 8.147.603 8.238 2.743M126.828 72.705c.417-4.571 8.821-5.239 9.692 1.327"
        stroke="#640200"
      />
      <path
        d="M88.613 118.495c.949 3.253 7.341 5.657 12.086 3.558"
        stroke="#600802"
      />
    </g>
    <g stroke="#fc949a" stroke-linecap="round" stroke-width="4">
      <path
        d="M123.548 112.165l4.591 5.558M131.019 111.113l6.242 8.111M71.662 98.217l6.649 9.55"
      />
      <path fill="none" d="M65.866 98.888l4.67 7.586" />
    </g>
    <g>
      <ellipse
        cx="97.517"
        cy="102.398"
        rx="10.917"
        ry="6.736"
        transform="rotate(10.333 94.551 107.505) skewX(-.341)"
        stroke="#261c1d"
        fill="#2e649e"
      />
      <ellipse
        cx="99.116"
        cy="102.032"
        rx="3.259"
        ry="1.709"
        transform="rotate(8.735 96.833 99.88) skewX(-.171)"
        fill="#fffdf5"
      />
    </g>
    <g>
      <circle
        cx="130.031"
        cy="103.804"
        r="13.552"
        transform="matrix(.67025 0 0 .66281 43.125 35.403)"
        fill="#680402"
      />
      <circle
        cx="125.527"
        cy="100.929"
        r="2.894"
        transform="matrix(.83498 0 0 .82009 22.241 19.72)"
        fill="#f3fffc"
      />
      <circle
        cx="134.108"
        cy="107.738"
        r="1.597"
        transform="matrix(.77558 0 0 .77773 29.771 23.685)"
        fill="#f3fffc"
      />
      <g>
        <circle
          cx="74.371"
          cy="91.997"
          r="7.192"
          transform="matrix(1.06462 0 -.00345 1.22303 -4.369 -19.142)"
          fill="#690707"
        />
        <circle
          cx="71.188"
          cy="92.215"
          r="1.864"
          transform="matrix(1.03333 0 0 1.13175 -2.209 -12.275)"
          fill="#fffdf5"
        />
        <circle
          cx="77.482"
          cy="96.512"
          r="1.284"
          transform="matrix(.965 0 0 1.01216 2.667 -1.277)"
          fill="#fffdf5"
        />
      </g>
    </g>
  </g>
</svg>
